<svg xmlns="http://www.w3.org/2000/svg" xmlns:xlink="http://www.w3.org/1999/xlink" viewBox="0 0 300 300"><defs><style>.cls-1{fill:url(#未命名的渐变);}.cls-2{fill:#fff;}.cls-3{fill:#1f1f1f;}</style><linearGradient id="未命名的渐变" x1="64.85" y1="270.46" x2="233.81" y2="31.2" gradientTransform="matrix(1, 0, 0, -1, 0, 299.89)" gradientUnits="userSpaceOnUse"><stop offset="0" stop-color="#14f0cf"/><stop offset="1" stop-color="#828cff"/></linearGradient></defs><title>资源 1</title><g id="图层_2" data-name="图层 2"><g id="图层_1-2" data-name="图层 1"><path class="cls-1" d="M150,300A150,150,0,1,0,0,150,150,150,0,0,0,150,300Z"/><path class="cls-2" d="M205.5,234.2H132.8a12.1,12.1,0,0,1,0-24.2h65.7l29.4-50.9L195,102.2A12.14,12.14,0,0,1,216,90l36.4,63a11.92,11.92,0,0,1,0,12.1l-36.4,63A12.14,12.14,0,0,1,205.5,234.2Z"/><path class="cls-3" d="M167.2,65.8H94.5A12.14,12.14,0,0,0,84,71.9l-36.4,63v.1c-.2.4-.5.9-.7,1.3v.1a5,5,0,0,0-.4,1.3c0,.1-.1.2-.1.4a4.25,4.25,0,0,0-.2,1.1.76.76,0,0,1-.1.4A7.08,7.08,0,0,0,46,141a6.15,6.15,0,0,0,.1,1.4.76.76,0,0,0,.1.4c.1.4.1.7.2,1.1,0,.1.1.2.1.4.1.4.3.9.4,1.3v.1a5.39,5.39,0,0,0,.7,1.3v.1L84,210a12,12,0,0,0,10.5,6.1,11.74,11.74,0,0,0,6-1.6,12.1,12.1,0,0,0,4.4-16.6L79.1,153h51.7a12.1,12.1,0,1,0,0-24.2H79.1L101.5,90h65.7a12.1,12.1,0,1,0,0-24.2Z"/></g></g></svg>