<svg width="567" height="263" viewBox="0 0 567 263" fill="none" xmlns="http://www.w3.org/2000/svg">
<path d="M196.056 135C193.022 135 190.32 134.641 187.95 133.924C185.58 133.207 183.589 131.892 181.977 129.98C180.366 128.068 179.133 125.343 178.28 121.805C177.427 118.219 177 113.582 177 107.892C177 102.394 177.427 97.9004 178.28 94.4104C179.181 90.9203 180.46 88.1952 182.12 86.2351C183.779 84.2749 185.793 82.9124 188.163 82.1474C190.534 81.3825 193.212 81 196.198 81C199.706 81 202.882 81.2869 205.726 81.8606C208.618 82.3865 210.917 82.9363 212.623 83.51V91.757C211.343 91.4701 209.4 91.2072 206.793 90.9681C204.233 90.6813 201.436 90.5378 198.402 90.5378C196.411 90.5378 194.705 90.7769 193.283 91.255C191.908 91.6853 190.794 92.5219 189.941 93.7649C189.135 94.9602 188.519 96.7052 188.092 99C187.713 101.295 187.523 104.283 187.523 107.964C187.523 112.745 187.832 116.402 188.448 118.936C189.064 121.422 190.154 123.143 191.719 124.1C193.283 125.008 195.511 125.462 198.402 125.462C201.958 125.462 204.873 125.39 207.148 125.247C209.424 125.104 211.249 124.936 212.623 124.745V132.92C210.68 133.59 208.333 134.116 205.584 134.498C202.882 134.833 199.706 135 196.056 135Z" fill="white"/>
<path d="M239.655 135C236.053 135 232.9 134.665 230.198 133.996C227.496 133.279 225.245 131.988 223.443 130.124C221.642 128.211 220.267 125.486 219.319 121.948C218.419 118.41 217.968 113.797 217.968 108.108C217.968 102.418 218.419 97.8048 219.319 94.2669C220.267 90.6813 221.642 87.9323 223.443 86.0199C225.292 84.1076 227.544 82.7928 230.198 82.0757C232.9 81.3586 236.053 81 239.655 81C243.258 81 246.41 81.3586 249.112 82.0757C251.814 82.7928 254.066 84.1076 255.867 86.0199C257.668 87.9323 259.019 90.6813 259.92 94.2669C260.821 97.8048 261.271 102.418 261.271 108.108C261.271 113.797 260.821 118.41 259.92 121.948C259.019 125.486 257.668 128.211 255.867 130.124C254.066 131.988 251.79 133.279 249.041 133.996C246.339 134.665 243.21 135 239.655 135ZM239.655 125.462C241.741 125.462 243.495 125.247 244.917 124.817C246.386 124.339 247.524 123.478 248.33 122.235C249.183 120.992 249.799 119.247 250.179 117C250.558 114.705 250.747 111.741 250.747 108.108C250.747 104.331 250.558 101.295 250.179 99C249.799 96.6574 249.183 94.8884 248.33 93.6932C247.477 92.4502 246.339 91.6135 244.917 91.1833C243.495 90.753 241.741 90.5378 239.655 90.5378C237.569 90.5378 235.816 90.753 234.393 91.1833C233.019 91.6135 231.881 92.4502 230.98 93.6932C230.127 94.8884 229.487 96.6574 229.061 99C228.681 101.295 228.492 104.331 228.492 108.108C228.492 111.741 228.658 114.705 228.99 117C229.369 119.247 229.985 120.992 230.838 122.235C231.691 123.478 232.829 124.339 234.251 124.817C235.673 125.247 237.475 125.462 239.655 125.462Z" fill="white"/>
<path d="M269.392 134.57V81.502H277.854L299.896 116.498V81.502H310.42V134.57H301.958L279.987 99.5737V134.57H269.392Z" fill="white"/>
<path d="M319.102 134.57V93.6215C319.102 90.4661 319.718 88.004 320.95 86.2351C322.183 84.4661 323.723 83.247 325.572 82.5777C327.421 81.8606 329.269 81.502 331.118 81.502C332.825 81.502 334.934 81.5259 337.446 81.5737C340.006 81.6215 342.708 81.7171 345.552 81.8606C348.444 81.9562 351.217 82.1474 353.872 82.4343V91.3267H334.033C332.564 91.3267 331.45 91.7331 330.692 92.5458C329.98 93.3108 329.625 94.3147 329.625 95.5578V104.665L350.459 105.239V113.629L329.625 114.203V134.57H319.102Z" fill="white"/>
<path d="M372.999 134.57C368.875 134.57 365.77 133.614 363.684 131.701C361.599 129.789 360.556 126.562 360.556 122.02V81.502H371.079V120.299C371.079 122.068 371.506 123.287 372.359 123.956C373.26 124.625 374.398 124.96 375.772 124.96H392.411V134.57H372.999Z" fill="white"/>
<path d="M417.404 134.928C414.465 134.928 411.74 134.689 409.227 134.211C406.762 133.685 404.582 132.801 402.686 131.558C400.837 130.267 399.391 128.498 398.348 126.251C397.353 123.956 396.855 121.04 396.855 117.502V81.502H407.379V117.43C407.379 120.347 408.256 122.402 410.01 123.598C411.763 124.793 414.228 125.39 417.404 125.39C420.533 125.39 422.974 124.793 424.728 123.598C426.482 122.402 427.359 120.347 427.359 117.43V81.502H437.954V117.502C437.954 121.04 437.432 123.956 436.389 126.251C435.346 128.498 433.901 130.267 432.052 131.558C430.203 132.801 428.023 133.685 425.51 134.211C422.998 134.689 420.296 134.928 417.404 134.928Z" fill="white"/>
<path d="M442.489 134.57L458.629 107.964L442.275 81.502H453.936L465.171 99.6454L475.41 81.502H487L470.646 108.538L486.787 134.57H475.126L464.176 116.857L454.15 134.57H442.489Z" fill="white"/>
<path d="M190.23 153.028H192.896V167.144C192.896 168.848 192.396 170.413 191.563 171.642C190.731 170.413 190.23 168.848 190.23 167.144V153.028ZM203.376 148.081H199.806V154.585H196.128V153.028H196.134V149.265H187.008V152.457H186.999V154.585H185.002V148.081H181.432V154.585H177.045V158.348H180.611V166.064C180.611 169.018 179.123 171.562 177 172.676V176.626C178.738 176.056 180.27 174.883 181.432 173.307V179.71H185.002V158.348H186.999V167.144C186.999 169.679 187.718 172.015 188.921 173.88C188.303 174.142 187.638 174.285 186.946 174.285H186.791V178.164H186.946C188.628 178.164 190.206 177.616 191.563 176.663C192.921 177.616 194.498 178.164 196.18 178.164H196.335V174.285H196.18C195.489 174.285 194.824 174.142 194.206 173.88C195.409 172.015 196.128 169.679 196.128 167.144V158.348H199.806V161.795H197.096V165.559H199.806V172.737H199.817C199.727 174.274 198.66 175.492 197.357 175.492V179.743C200.613 179.743 203.271 176.619 203.364 172.737H203.376V158.348H205.801V154.585H203.376V148.081Z" fill="white"/>
<path d="M378.51 168.501V160.62C378.966 160.507 379.402 160.329 379.812 160.097V165.891C379.812 167.018 379.285 168.001 378.51 168.501ZM380.03 152.539V153.808C380.03 155.084 379.408 156.186 378.51 156.708V152.539H380.03ZM383.355 165.891V159.219H380.976C382.293 157.944 383.137 155.993 383.137 153.808V149.672H383.131V149.02H374.939V149.579V152.539V179.805H378.51V172.967C381.268 172.314 383.355 169.39 383.355 165.891Z" fill="white"/>
<path d="M296.337 148.081H292.767V150.504H292.697C292.697 151.986 291.859 153.238 290.722 153.612V157.402C290.901 157.376 291.078 157.339 291.252 157.294V160.686H293.741V164.629H291.252V168.393H293.741V174.113L291.254 175.274V179.313L299.002 175.693V171.654L297.31 172.444V168.393H299.018V164.629H297.31V160.686H299.018V156.922H292.233C293.243 156.417 294.109 155.577 294.735 154.52H299.266V150.756H296.337V148.081Z" fill="white"/>
<path d="M279.467 154.52H284.02V162.963H279.467V154.52ZM287.59 153.267H287.552V150.756H279.467V148.082H275.925V150.756H270.818V154.52H275.925V162.964H270.818V166.727H275.762C275.168 170.624 272.991 173.866 270.063 175.455V180.005C274.959 178.133 278.649 172.991 279.346 166.727H279.581C280.261 172.843 283.795 177.89 288.52 179.868V175.26C285.767 173.609 283.742 170.47 283.17 166.727H288.768V162.964H287.59V153.267Z" fill="white"/>
<path d="M236.795 149.075H236.683V179.804H240.252V179.133H260.329V175.369H240.252V152.779H260.329V149.016H236.795V149.075Z" fill="white"/>
<path d="M303.486 174.005H303.421V157.061H300.141V174.005H300.131C300.131 174.126 300.135 174.246 300.141 174.365V174.414L300.144 174.414C300.319 177.381 302.385 179.73 304.9 179.73H316.671V175.702H304.9C304.121 175.702 303.486 174.941 303.486 174.005Z" fill="white"/>
<path d="M303.41 150.563H300.078V154.547H303.41V150.563Z" fill="white"/>
<path d="M311.183 148.106H307.515L306.992 150.756H304.691V154.519H306.249L304.833 161.695H304.727V165.459H309.959V167.612H304.727V171.375H309.959V174.553H313.529V171.375H316.714V167.612H313.529V165.459H316.714V161.695H313.529V157.546H309.959V161.695H308.502L309.918 154.519H316.714V150.756H310.661L311.183 148.106Z" fill="white"/>
<path d="M211.896 175.419V165.529H213.341V165.533C213.406 165.533 213.469 165.53 213.533 165.529H213.587V165.528C216.125 165.494 218.565 164.937 220.701 163.924C222.761 164.902 225.149 165.472 227.694 165.526V165.529H227.874C227.945 165.53 228.015 165.533 228.088 165.533V165.529H229.354V175.419H211.896ZM218.273 157.745H223.152C222.718 158.27 222.196 158.769 221.587 159.23C221.31 159.44 221.019 159.638 220.719 159.823C219.751 159.233 218.919 158.531 218.273 157.745ZM211.896 156.004V152.829H214.489C214.471 154.55 213.323 155.947 211.896 156.004ZM213.341 161.798V161.815H211.896V159.741C213.001 159.721 214.032 159.328 214.905 158.662C215.443 159.65 216.139 160.557 216.971 161.367C215.816 161.649 214.595 161.798 213.341 161.798ZM229.354 161.815H228.088V161.798C226.831 161.798 225.605 161.641 224.452 161.355C226.4 159.472 227.536 157.154 227.719 154.659H224.586C224.585 154.665 224.584 154.669 224.583 154.675H217.734V152.829H229.354V161.815ZM232.892 149.065H208.53V149.087H208.326V179.805H211.896V179.183H229.354V179.805H232.925V149.087H232.892V149.065Z" fill="white"/>
<path d="M351.069 152.614H368.378V156.405H371.949V149.094H371.817H368.378H361.198V148.1H357.628V149.094H351.069H347.532H347.498V156.405H351.069V152.614Z" fill="white"/>
<path d="M370.498 174.658C370.085 173.978 369.593 172.606 369.593 169.924V165.214H369.603V161.695H358.232V158.467H354.69V161.695H349.363V165.214H354.69V167.415C354.69 172.15 352.252 175.588 348.895 175.588H347.659V179.84H348.895C351.457 179.84 353.818 178.593 355.545 176.329C357.277 174.057 358.232 170.891 358.232 167.415V165.214H366.05V169.924C366.05 177.259 369.155 179.873 372.061 179.873V175.621C371.394 175.621 370.897 175.315 370.498 174.658Z" fill="white"/>
<path d="M385.173 161.53H399.371V157.767H385.173V161.53Z" fill="white"/>
<path d="M384.25 167.237H387.231V168.833C387.231 172.283 385.126 175.154 382.376 175.695V179.982C387.085 179.415 390.773 174.631 390.773 168.833V167.237H393.51V172.679C393.51 176.635 396.192 179.855 399.489 179.855V179.835H400.623V175.665H399.472V175.677C398.102 175.666 396.99 174.326 396.99 172.679V167.237H400.661V163.474H384.25V167.237Z" fill="white"/>
<path d="M399.832 149.094V149.09H393.585V148H390.015V149.09H383.96V149.094V152.854V156.405H387.531V152.854H397.14V156.405H400.711V149.094H399.832Z" fill="white"/>
<path d="M340.451 161.695H336.543V152.891H340.451V161.695ZM325.109 160.685H326.709V170.459H325.109V160.685ZM331.083 152.891H333V161.695H331.083V165.458H333V168.732C333 171.212 331.913 173.392 330.28 174.624V160.685V159.979V156.921H325.802C326.025 155.71 326.146 154.463 326.146 153.197V152.891H330.288V149.127H319.824V152.891H322.471V153.197C322.471 156.275 321.558 159.209 319.943 161.524V167.46C320.511 166.981 321.04 166.455 321.539 165.896V174.763H325.109V174.222H326.709V174.711H330.162C329.296 175.33 328.285 175.688 327.206 175.688H327.051V179.939H327.206C332.354 179.939 336.543 174.912 336.543 168.732V165.458H340.451V179.904H344.021V165.458H345.646V161.695H344.021V152.891H345.646V149.127H331.083V152.891Z" fill="white"/>
<path d="M229.132 167.808V167.947L229.189 167.859C229.17 167.842 229.151 167.826 229.132 167.808Z" fill="white"/>
<path d="M214.508 165.902V169.631H224.474C225.244 169.631 225.962 169.772 226.647 170.071L226.729 166.655C226.315 166.243 225.641 165.902 224.474 165.902H214.508Z" fill="white"/>
<path d="M214.508 170.725V174.454H224.474C225.244 174.454 225.962 174.596 226.647 174.894L226.729 171.478C226.315 171.066 225.641 170.725 224.474 170.725H214.508Z" fill="white"/>
<path d="M229.132 172.77L229.189 172.683C229.17 172.665 229.151 172.649 229.132 172.631V172.77Z" fill="white"/>
<path d="M349.342 157.238V160.973C352.886 160.973 355.816 157.767 356.229 153.645H353.076C352.694 155.698 351.166 157.238 349.342 157.238Z" fill="white"/>
<path d="M366.404 153.645H363.25C363.664 157.767 366.593 160.973 370.138 160.973V157.238C368.314 157.238 366.786 155.698 366.404 153.645Z" fill="white"/>
<path d="M253.56 154.601L250.107 160.529L246.653 154.601H242.441L248.001 164.144L242.265 173.992H247.126L250.432 168.318L253.738 173.992H257.949L252.538 164.703L258.423 154.601H253.56Z" fill="white"/>
<path d="M270.498 169.207L268.766 170.017V159.79H271.571V156.027H268.766V149.076H265.196V156.027H262.636V159.79H265.196V171.685L262.627 172.886V176.925L270.498 173.246V169.207Z" fill="white"/>
<path d="M141.128 139.59L119.98 160.928L108.21 149.053L129.358 127.715L119.953 118.225L89.2959 149.155L119.868 180L150.524 149.07L141.128 139.59Z" fill="white"/>
<path d="M160 120.303L120.056 80.0001L80 120.415L80.1277 139.306L119.886 99.1919L159.934 139.599L160 120.303Z" fill="white"/>
</svg>
