<svg width="565" height="260" viewBox="0 0 565 260" fill="none" xmlns="http://www.w3.org/2000/svg">
<path d="M195.056 157C192.022 157 189.32 156.641 186.95 155.924C184.58 155.207 182.589 153.892 180.977 151.98C179.366 150.068 178.133 147.343 177.28 143.805C176.427 140.219 176 135.582 176 129.892C176 124.394 176.427 119.9 177.28 116.41C178.181 112.92 179.46 110.195 181.12 108.235C182.779 106.275 184.793 104.912 187.163 104.147C189.534 103.382 192.212 103 195.198 103C198.706 103 201.882 103.287 204.726 103.861C207.618 104.386 209.917 104.936 211.623 105.51V113.757C210.343 113.47 208.4 113.207 205.793 112.968C203.233 112.681 200.436 112.538 197.402 112.538C195.411 112.538 193.705 112.777 192.283 113.255C190.908 113.685 189.794 114.522 188.941 115.765C188.135 116.96 187.519 118.705 187.092 121C186.713 123.295 186.523 126.283 186.523 129.964C186.523 134.745 186.832 138.402 187.448 140.936C188.064 143.422 189.154 145.143 190.719 146.1C192.283 147.008 194.511 147.462 197.402 147.462C200.958 147.462 203.873 147.39 206.148 147.247C208.424 147.104 210.249 146.936 211.623 146.745V154.92C209.68 155.59 207.333 156.116 204.584 156.498C201.882 156.833 198.706 157 195.056 157Z" fill="#1A1A1A"/>
<path d="M238.655 157C235.053 157 231.9 156.665 229.198 155.996C226.496 155.279 224.245 153.988 222.443 152.124C220.642 150.211 219.267 147.486 218.319 143.948C217.419 140.41 216.968 135.797 216.968 130.108C216.968 124.418 217.419 119.805 218.319 116.267C219.267 112.681 220.642 109.932 222.443 108.02C224.292 106.108 226.544 104.793 229.198 104.076C231.9 103.359 235.053 103 238.655 103C242.258 103 245.41 103.359 248.112 104.076C250.814 104.793 253.066 106.108 254.867 108.02C256.668 109.932 258.019 112.681 258.92 116.267C259.821 119.805 260.271 124.418 260.271 130.108C260.271 135.797 259.821 140.41 258.92 143.948C258.019 147.486 256.668 150.211 254.867 152.124C253.066 153.988 250.79 155.279 248.041 155.996C245.339 156.665 242.21 157 238.655 157ZM238.655 147.462C240.741 147.462 242.495 147.247 243.917 146.817C245.386 146.339 246.524 145.478 247.33 144.235C248.183 142.992 248.799 141.247 249.179 139C249.558 136.705 249.747 133.741 249.747 130.108C249.747 126.331 249.558 123.295 249.179 121C248.799 118.657 248.183 116.888 247.33 115.693C246.477 114.45 245.339 113.614 243.917 113.183C242.495 112.753 240.741 112.538 238.655 112.538C236.569 112.538 234.816 112.753 233.393 113.183C232.019 113.614 230.881 114.45 229.98 115.693C229.127 116.888 228.487 118.657 228.061 121C227.681 123.295 227.492 126.331 227.492 130.108C227.492 133.741 227.658 136.705 227.99 139C228.369 141.247 228.985 142.992 229.838 144.235C230.691 145.478 231.829 146.339 233.251 146.817C234.673 147.247 236.475 147.462 238.655 147.462Z" fill="#1A1A1A"/>
<path d="M268.392 156.57V103.502H276.854L298.896 138.498V103.502H309.42V156.57H300.958L278.987 121.574V156.57H268.392Z" fill="#1A1A1A"/>
<path d="M318.102 156.57V115.622C318.102 112.466 318.718 110.004 319.95 108.235C321.183 106.466 322.723 105.247 324.572 104.578C326.421 103.861 328.269 103.502 330.118 103.502C331.825 103.502 333.934 103.526 336.446 103.574C339.006 103.622 341.708 103.717 344.552 103.861C347.444 103.956 350.217 104.147 352.872 104.434V113.327H333.033C331.564 113.327 330.45 113.733 329.692 114.546C328.98 115.311 328.625 116.315 328.625 117.558V126.665L349.459 127.239V135.629L328.625 136.203V156.57H318.102Z" fill="#1A1A1A"/>
<path d="M371.999 156.57C367.875 156.57 364.77 155.614 362.684 153.701C360.599 151.789 359.556 148.562 359.556 144.02V103.502H370.079V142.299C370.079 144.068 370.506 145.287 371.359 145.956C372.26 146.625 373.398 146.96 374.772 146.96H391.411V156.57H371.999Z" fill="#1A1A1A"/>
<path d="M416.404 156.928C413.465 156.928 410.74 156.689 408.227 156.211C405.762 155.685 403.582 154.801 401.686 153.558C399.837 152.267 398.391 150.498 397.348 148.251C396.353 145.956 395.855 143.04 395.855 139.502V103.502H406.379V139.43C406.379 142.347 407.256 144.402 409.01 145.598C410.763 146.793 413.228 147.39 416.404 147.39C419.533 147.39 421.974 146.793 423.728 145.598C425.482 144.402 426.359 142.347 426.359 139.43V103.502H436.954V139.502C436.954 143.04 436.432 145.956 435.389 148.251C434.346 150.498 432.901 152.267 431.052 153.558C429.203 154.801 427.023 155.685 424.51 156.211C421.998 156.689 419.296 156.928 416.404 156.928Z" fill="#1A1A1A"/>
<path d="M441.489 156.57L457.629 129.964L441.275 103.502H452.936L464.171 121.645L474.41 103.502H486L469.646 130.538L485.787 156.57H474.126L463.176 138.857L453.15 156.57H441.489Z" fill="#1A1A1A"/>
<path d="M140.128 139.59L118.98 160.928L107.21 149.052L128.358 127.714L118.953 118.225L88.2959 149.155L118.868 180L149.524 149.07L140.128 139.59Z" fill="#1A1A1A"/>
<path d="M159 120.303L119.056 80.0001L79 120.415L79.1277 139.306L118.886 99.1919L158.934 139.599L159 120.303Z" fill="#1A1A1A"/>
</svg>
