<svg width="407" height="103" viewBox="0 0 407 103" fill="none" xmlns="http://www.w3.org/2000/svg">
<path d="M116.056 55C113.022 55 110.32 54.6414 107.95 53.9243C105.58 53.2072 103.589 51.8924 101.977 49.9801C100.366 48.0677 99.1331 45.3426 98.2799 41.8048C97.4266 38.2191 97 33.5817 97 27.8924C97 22.3944 97.4266 17.9004 98.2799 14.4104C99.1805 10.9203 100.46 8.19522 102.12 6.23506C103.779 4.2749 105.793 2.91235 108.163 2.14741C110.534 1.38247 113.212 1 116.198 1C119.706 1 122.882 1.28685 125.726 1.86056C128.618 2.38645 130.917 2.93626 132.623 3.50996V11.757C131.343 11.4701 129.4 11.2072 126.793 10.9681C124.233 10.6813 121.436 10.5378 118.402 10.5378C116.411 10.5378 114.705 10.7769 113.283 11.255C111.908 11.6853 110.794 12.5219 109.941 13.7649C109.135 14.9602 108.519 16.7052 108.092 19C107.713 21.2948 107.523 24.2829 107.523 27.9641C107.523 32.745 107.832 36.4024 108.448 38.9363C109.064 41.4223 110.154 43.1434 111.719 44.0996C113.283 45.008 115.511 45.4621 118.402 45.4621C121.958 45.4621 124.873 45.3904 127.148 45.247C129.424 45.1036 131.249 44.9362 132.623 44.745V52.9203C130.68 53.5896 128.333 54.1155 125.584 54.498C122.882 54.8327 119.706 55 116.056 55Z" fill="#1A1A1A"/>
<path d="M159.655 55C156.053 55 152.9 54.6653 150.198 53.996C147.496 53.2789 145.245 51.988 143.443 50.1235C141.642 48.2112 140.267 45.4861 139.319 41.9482C138.419 38.4104 137.968 33.7968 137.968 28.1076C137.968 22.4183 138.419 17.8048 139.319 14.2669C140.267 10.6813 141.642 7.93227 143.443 6.01992C145.292 4.10757 147.544 2.79283 150.198 2.0757C152.9 1.35856 156.053 1 159.655 1C163.258 1 166.41 1.35856 169.112 2.0757C171.814 2.79283 174.066 4.10757 175.867 6.01992C177.668 7.93227 179.019 10.6813 179.92 14.2669C180.821 17.8048 181.271 22.4183 181.271 28.1076C181.271 33.7968 180.821 38.4104 179.92 41.9482C179.019 45.4861 177.668 48.2112 175.867 50.1235C174.066 51.988 171.79 53.2789 169.041 53.996C166.339 54.6653 163.21 55 159.655 55ZM159.655 45.4621C161.741 45.4621 163.495 45.247 164.917 44.8167C166.386 44.3386 167.524 43.4781 168.33 42.2351C169.183 40.992 169.799 39.247 170.179 37C170.558 34.7052 170.747 31.741 170.747 28.1076C170.747 24.3307 170.558 21.2948 170.179 19C169.799 16.6574 169.183 14.8884 168.33 13.6932C167.477 12.4502 166.339 11.6135 164.917 11.1833C163.495 10.753 161.741 10.5378 159.655 10.5378C157.569 10.5378 155.816 10.753 154.393 11.1833C153.019 11.6135 151.881 12.4502 150.98 13.6932C150.127 14.8884 149.487 16.6574 149.061 19C148.681 21.2948 148.492 24.3307 148.492 28.1076C148.492 31.741 148.658 34.7052 148.99 37C149.369 39.247 149.985 40.992 150.838 42.2351C151.691 43.4781 152.829 44.3386 154.251 44.8167C155.673 45.247 157.475 45.4621 159.655 45.4621Z" fill="#1A1A1A"/>
<path d="M189.392 54.5697V1.50199H197.854L219.896 36.498V1.50199H230.42V54.5697H221.958L199.987 19.5737V54.5697H189.392Z" fill="#1A1A1A"/>
<path d="M239.102 54.5697V13.6215C239.102 10.4661 239.718 8.00398 240.95 6.23506C242.183 4.46614 243.723 3.24701 245.572 2.57769C247.421 1.86056 249.269 1.50199 251.118 1.50199C252.825 1.50199 254.934 1.5259 257.446 1.57371C260.006 1.62151 262.708 1.71713 265.552 1.86056C268.444 1.95618 271.217 2.14741 273.872 2.43426V11.3267H254.033C252.564 11.3267 251.45 11.7331 250.692 12.5458C249.98 13.3108 249.625 14.3147 249.625 15.5578V24.6653L270.459 25.239V33.6295L249.625 34.2032V54.5697H239.102Z" fill="#1A1A1A"/>
<path d="M292.999 54.5697C288.875 54.5697 285.77 53.6135 283.684 51.7012C281.599 49.7888 280.556 46.5617 280.556 42.0199V1.50199H291.079V40.2988C291.079 42.0677 291.506 43.2868 292.359 43.9562C293.26 44.6255 294.398 44.9602 295.772 44.9602H312.411V54.5697H292.999Z" fill="#1A1A1A"/>
<path d="M337.404 54.9283C334.465 54.9283 331.74 54.6892 329.227 54.2112C326.762 53.6853 324.582 52.8008 322.686 51.5578C320.837 50.2669 319.391 48.498 318.348 46.251C317.353 43.9562 316.855 41.0398 316.855 37.502V1.50199H327.379V37.4303C327.379 40.3466 328.256 42.4024 330.01 43.5976C331.763 44.7928 334.228 45.3904 337.404 45.3904C340.533 45.3904 342.974 44.7928 344.728 43.5976C346.482 42.4024 347.359 40.3466 347.359 37.4303V1.50199H357.954V37.502C357.954 41.0398 357.432 43.9562 356.389 46.251C355.346 48.498 353.901 50.2669 352.052 51.5578C350.203 52.8008 348.023 53.6853 345.51 54.2112C342.998 54.6892 340.296 54.9283 337.404 54.9283Z" fill="#1A1A1A"/>
<path d="M362.489 54.5697L378.629 27.9641L362.275 1.50199H373.936L385.171 19.6454L395.41 1.50199H407L390.646 28.5378L406.787 54.5697H395.126L384.176 36.8566L374.15 54.5697H362.489Z" fill="#1A1A1A"/>
<path d="M110.23 73.0282H112.896V87.1436C112.896 88.8475 112.396 90.4134 111.563 91.6422C110.731 90.4134 110.23 88.8475 110.23 87.1436V73.0282ZM123.376 68.081H119.806V74.5849H116.128V73.0282H116.134V69.2649H107.008V72.4569H106.999V74.5849H105.002V68.081H101.432V74.5849H97.0449V78.3483H100.611V86.0641C100.611 89.0179 99.1231 91.5616 97 92.676V96.6258C98.7383 96.0559 100.27 94.8826 101.432 93.3069V99.7099H105.002V78.3483H106.999V87.1436C106.999 89.6789 107.718 92.0151 108.921 93.8795C108.303 94.1417 107.638 94.2854 106.946 94.2854H106.791V98.1644H106.946C108.628 98.1644 110.206 97.6155 111.563 96.663C112.921 97.6155 114.498 98.1644 116.18 98.1644H116.335V94.2854H116.18C115.489 94.2854 114.824 94.1417 114.206 93.8795C115.409 92.0151 116.128 89.6789 116.128 87.1436V78.3483H119.806V81.7948H117.096V85.5588H119.806V92.737H119.817C119.727 94.2735 118.66 95.4917 117.357 95.4917V99.7429C120.613 99.7429 123.271 96.6188 123.364 92.737H123.376V78.3483H125.801V74.5849H123.376V68.081Z" fill="#1A1A1A"/>
<path d="M298.51 88.5009V80.6196C298.966 80.5068 299.402 80.3294 299.812 80.0967V85.8913C299.812 87.0184 299.285 88.0004 298.51 88.5009ZM300.03 72.5392V73.8079C300.03 75.0836 299.408 76.1855 298.51 76.7077V72.5392H300.03ZM303.355 85.8913V79.2191H300.976C302.293 77.9441 303.137 75.9927 303.137 73.8079V69.6724H303.131V69.0199H294.939V69.5785V72.5392V99.8049H298.51V92.9673C301.268 92.314 303.355 89.3897 303.355 85.8913Z" fill="#1A1A1A"/>
<path d="M216.337 68.0815H212.767V70.5039H212.697C212.697 71.9864 211.859 73.2375 210.722 73.6118V77.4025C210.901 77.3759 211.078 77.3394 211.252 77.2939V80.6857H213.741V84.6291H211.252V88.3931H213.741V94.1128L211.254 95.2742V99.313L219.002 95.6927V91.6539L217.31 92.4438V88.3931H219.018V84.6291H217.31V80.6857H219.018V76.9224H212.233C213.243 76.417 214.109 75.5773 214.735 74.5203H219.266V70.7562H216.337V68.0815Z" fill="#1A1A1A"/>
<path d="M199.467 74.5198H204.02V82.9632H199.467V74.5198ZM207.59 73.2672H207.552V70.7564H199.467V68.0817H195.925V70.7564H190.818V74.5198H195.925V82.9639H190.818V86.7272H195.762C195.168 90.6244 192.991 93.8655 190.063 95.4552V100.005C194.959 98.1328 198.649 92.9908 199.346 86.7272H199.581C200.261 92.8429 203.795 97.8903 208.52 99.8676V95.2604C205.767 93.609 203.742 90.4695 203.17 86.7272H208.768V82.9639H207.59V73.2672Z" fill="#1A1A1A"/>
<path d="M156.795 69.0753H156.683V99.8042H160.252V99.1327H180.329V95.3687H160.252V72.779H180.329V69.0157H156.795V69.0753Z" fill="#1A1A1A"/>
<path d="M223.486 94.0049H223.421V77.0613H220.141V94.0049H220.131C220.131 94.1262 220.135 94.2461 220.141 94.3652V94.4136L220.144 94.4143C220.319 97.3806 222.385 99.7302 224.9 99.7302H236.671V95.7019H224.9C224.121 95.7019 223.486 94.9407 223.486 94.0049Z" fill="#1A1A1A"/>
<path d="M223.41 70.5631H220.078V74.5465H223.41V70.5631Z" fill="#1A1A1A"/>
<path d="M231.183 68.1056H227.515L226.992 70.7558H224.691V74.5191H226.249L224.833 81.6946H224.727V85.4586H229.959V87.6119H224.727V91.3752H229.959V94.5532H233.529V91.3752H236.714V87.6119H233.529V85.4586H236.714V81.6946H233.529V77.5465H229.959V81.6946H228.502L229.918 74.5191H236.714V70.7558H230.661L231.183 68.1056Z" fill="#1A1A1A"/>
<path d="M131.896 95.4191V85.529H133.341V85.5325C133.406 85.5325 133.469 85.5297 133.533 85.529H133.587V85.5283C136.125 85.4939 138.565 84.9374 140.701 83.9238C142.761 84.9016 145.149 85.4722 147.694 85.5261V85.529H147.874C147.945 85.5297 148.015 85.5325 148.088 85.5325V85.529H149.354V95.4191H131.896ZM138.273 77.7451H143.152C142.718 78.2701 142.196 78.7691 141.587 79.2297C141.31 79.4399 141.019 79.6376 140.719 79.8234C139.751 79.2332 138.919 78.5308 138.273 77.7451ZM131.896 76.004V72.8294H134.489C134.471 74.5502 133.323 75.9472 131.896 76.004ZM133.341 81.7979V81.8147H131.896V79.7413C133.001 79.721 134.032 79.3278 134.905 78.6619C135.443 79.6495 136.139 80.5572 136.971 81.3668C135.816 81.6493 134.595 81.7979 133.341 81.7979ZM149.354 81.8147H148.088V81.7979C146.831 81.7979 145.605 81.6409 144.452 81.3549C146.4 79.4715 147.536 77.1542 147.719 74.6589H144.586C144.585 74.6645 144.584 74.6694 144.583 74.675H137.734V72.8294H149.354V81.8147ZM152.892 69.0654H128.53V69.0871H128.326V99.8049H131.896V99.1824H149.354V99.8049H152.925V69.0871H152.892V69.0654Z" fill="#1A1A1A"/>
<path d="M271.069 72.6136H288.378V76.4049H291.949V69.0942H291.817H288.378H281.198V68.0995H277.628V69.0942H271.069H267.532H267.498V76.4049H271.069V72.6136Z" fill="#1A1A1A"/>
<path d="M290.498 94.6576C290.085 93.9784 289.593 92.606 289.593 89.9242V85.2139H289.603V81.6945H278.232V78.4667H274.69V81.6945H269.363V85.2139H274.69V87.4149C274.69 92.1504 272.252 95.5885 268.895 95.5885H267.659V99.8396H268.895C271.457 99.8396 273.818 98.5934 275.545 96.3293C277.277 94.0569 278.232 90.8908 278.232 87.4149V85.2139H286.05V89.9242C286.05 97.2588 289.155 99.8726 292.061 99.8726V95.6214C291.394 95.6214 290.897 95.3151 290.498 94.6576Z" fill="#1A1A1A"/>
<path d="M305.173 81.5304H319.371V77.7671H305.173V81.5304Z" fill="#1A1A1A"/>
<path d="M304.25 87.2374H307.231V88.8327C307.231 92.2834 305.126 95.1538 302.376 95.6949V99.9825C307.085 99.4147 310.773 94.6309 310.773 88.8327V87.2374H313.51V92.6788C313.51 96.6355 316.192 99.8549 319.489 99.8549V99.8346H320.623V95.6654H319.472V95.6773C318.102 95.6661 316.99 94.3259 316.99 92.6788V87.2374H320.661V83.4741H304.25V87.2374Z" fill="#1A1A1A"/>
<path d="M319.832 69.0942V69.09H313.585V68H310.015V69.09H303.96V69.0942V72.854V76.4049H307.531V72.854H317.14V76.4049H320.711V69.0942H319.832Z" fill="#1A1A1A"/>
<path d="M260.451 81.6949H256.543V72.8912H260.451V81.6949ZM245.109 80.6848H246.709V90.4587H245.109V80.6848ZM251.083 72.8905H253V81.6949H251.083V85.4582H253V88.7323C253 91.2122 251.913 93.3921 250.28 94.6243V80.6848V79.979V76.9208H245.802C246.025 75.7096 246.146 74.4634 246.146 73.1968V72.8905H250.288V69.1271H239.824V72.8905H242.471V73.1968C242.471 76.2746 241.558 79.2087 239.943 81.5239V87.4601C240.511 86.9813 241.04 86.4549 241.539 85.8956V94.7631H245.109V94.222H246.709V94.7112H250.162C249.296 95.3301 248.285 95.6876 247.206 95.6876H247.051V99.9388H247.206C252.354 99.9388 256.543 94.9117 256.543 88.7323V85.4582H260.451V99.9037H264.021V85.4582H265.646V81.6949H264.021V72.8905H265.646V69.1271H251.083V72.8905Z" fill="#1A1A1A"/>
<path d="M149.132 87.8082V87.947L149.189 87.8594C149.17 87.8419 149.151 87.8258 149.132 87.8082Z" fill="#1A1A1A"/>
<path d="M134.508 85.902V89.6309H144.474C145.244 89.6309 145.962 89.7725 146.647 90.0711L146.729 86.6548C146.315 86.2426 145.641 85.902 144.474 85.902H134.508Z" fill="#1A1A1A"/>
<path d="M134.508 90.7251V94.4541H144.474C145.244 94.4541 145.962 94.5957 146.647 94.8943L146.729 91.4779C146.315 91.0658 145.641 90.7251 144.474 90.7251H134.508Z" fill="#1A1A1A"/>
<path d="M149.132 92.7702L149.189 92.6826C149.17 92.6651 149.151 92.6489 149.132 92.6314V92.7702Z" fill="#1A1A1A"/>
<path d="M269.342 77.2384V80.973C272.886 80.973 275.816 77.7669 276.229 73.6447H273.076C272.694 75.6977 271.166 77.2384 269.342 77.2384Z" fill="#1A1A1A"/>
<path d="M286.404 73.6447H283.25C283.664 77.7669 286.593 80.973 290.138 80.973V77.2384C288.314 77.2384 286.786 75.6977 286.404 73.6447Z" fill="#1A1A1A"/>
<path d="M173.56 74.6009L170.107 80.5294L166.653 74.6009H162.441L168.001 84.1441L162.265 93.9915H167.126L170.432 88.3175L173.738 93.9915H177.949L172.538 84.7027L178.423 74.6009H173.56Z" fill="#1A1A1A"/>
<path d="M190.498 89.2073L188.766 90.0169V79.7903H191.571V76.027H188.766V69.0758H185.196V76.027H182.636V79.7903H185.196V91.6851L182.627 92.8858V96.9246L190.498 93.2461V89.2073Z" fill="#1A1A1A"/>
<path d="M61.1283 59.5901L39.9798 80.9281L28.2097 69.0526L49.3583 47.7146L39.9526 38.2247L9.2959 69.155L39.8682 100L70.5239 69.0698L61.1283 59.5901Z" fill="#1A1A1A"/>
<path d="M80 40.3025L40.0563 5.72205e-05L0 40.4151L0.127727 59.3056L39.8864 19.1918L79.9336 59.5988L80 40.3025Z" fill="#1A1A1A"/>
</svg>
