<?xml version="1.0" encoding="utf-8"?>
<!-- Generator: Adobe Illustrator 24.0.2, SVG Export Plug-In . SVG Version: 6.00 Build 0)  -->
<svg version="1.1" id="图层_1" xmlns="http://www.w3.org/2000/svg" xmlns:xlink="http://www.w3.org/1999/xlink" x="0px" y="0px"
	 viewBox="0 0 841.9 595.3" style="enable-background:new 0 0 841.9 595.3;" xml:space="preserve">
<style type="text/css">
	.st0{fill:#4891CD;stroke:#000000;stroke-width:0.25;stroke-miterlimit:10;}
	.st1{fill:none;}
	.st2{fill:#5F5F5F;}
	.st3{font-family:'MyriadPro-Regular';}
	.st4{font-size:12px;}
	.st5{stroke:#000000;stroke-width:0.25;stroke-miterlimit:10;}
	.st6{fill:#FFFFFF;stroke:#000000;stroke-width:0.25;stroke-miterlimit:10;}
	.st7{fill:#4891CD;stroke:#000000;stroke-width:3.349;stroke-linecap:round;stroke-miterlimit:10;}
	.st8{fill:#4891CD;stroke:#000000;stroke-width:3;stroke-linejoin:round;stroke-miterlimit:10;}
	.st9{fill:#4891CD;stroke:#000000;stroke-width:3;stroke-linecap:round;stroke-miterlimit:10;}
	.st10{fill:#4891CD;stroke:#000000;stroke-width:3;stroke-miterlimit:10;}
	.st11{fill:#FFFFFF;stroke:#000000;stroke-width:3;stroke-miterlimit:10;}
	.st12{fill:#FFFFFF;}
	.st13{fill:#4891CD;}
	.st14{fill:#4891CD;stroke:#000000;stroke-width:3;stroke-linecap:round;stroke-linejoin:round;stroke-miterlimit:10;}
	.st15{fill:#FFFFFD;}
	.st16{fill:none;stroke:#000000;stroke-width:2.7;stroke-miterlimit:10;}
	.st17{font-family:'SourceHanSansSC-Medium';}
	.st18{font-size:18px;}
</style>
<circle class="st0" cx="633.5" cy="439.1" r="19.6"/>
<rect x="665.9" y="423.7" class="st1" width="102.2" height="59.2"/>
<text transform="matrix(1 0 0 1 665.8755 432.2563)"><tspan x="0" y="0" class="st2 st3 st4">#4891cd      </tspan><tspan x="0" y="14.4" class="st2 st3 st4">R: 72 G:145 B:205    </tspan><tspan x="0" y="28.8" class="st2 st3 st4">C:70 M:32 Y:2 K:0</tspan></text>
<circle class="st5" cx="457.6" cy="439.1" r="19.6"/>
<rect x="490" y="423.7" class="st1" width="102.2" height="59.2"/>
<text transform="matrix(1 0 0 1 489.9672 432.2563)"><tspan x="0" y="0" class="st2 st3 st4">#231815      </tspan><tspan x="0" y="14.4" class="st2 st3 st4">R: 35 G:24 B:21    </tspan><tspan x="0" y="28.8" class="st2 st3 st4">C:0 M:0 Y:0 K:100</tspan></text>
<circle class="st6" cx="277.6" cy="439.1" r="19.6"/>
<rect x="310" y="423.7" class="st1" width="102.2" height="59.2"/>
<text transform="matrix(1 0 0 1 310.0273 432.2563)"><tspan x="0" y="0" class="st2 st3 st4">#ffffff      </tspan><tspan x="0" y="14.4" class="st2 st3 st4">R: 255 G:255 B:255   </tspan><tspan x="0" y="28.8" class="st2 st3 st4">C:0 M:0 Y:0 K:0</tspan></text>
<g>
	<g>
		<path class="st7" d="M383.7,310.6c-0.1-3.4-3.3-6.1-4.8-6.1c0,0,0,0-0.1,0c-0.4,0-5.2,0.2-5.7,0.2c-6,0-9.1,6.9-10.1,9.9
			c-2.3-0.8-4.8-1.3-7.4-1.3c-13.9,0-23.5,14.5-23.5,26.8c0,14.4,10.5,26.6,25.8,26.6c17.6,0,26.9-5.9,27.2-25.7
			C385.4,327.7,383.9,317.3,383.7,310.6z"/>
		<path class="st8" d="M402.4,223.6h34.1c0,0,13.1,54.1,12.1,75.3c-1.1,24.4-18.8,26.4-19,28.7c-1.3,13.6-1,22.2-1,22.2
			s8.1,8.5,2.1,14.3c-2.9,2.8-4.5,3.4-20,3.4c-15.3,0-14.6-5.1-14.6-37.1c0,0-28.4-2.4-24.8-30.1c5.3-40,16.3-76.5,16.3-76.5H402.4z
			"/>
		<path class="st9" d="M393,264.6c-3.6,18.9-10.6,51.2,7.2,54.4c18.1,3.2,17.3-16.8,15.4-42.6"/>
		<path class="st10" d="M484.4,179c0-42.8-29-66.6-74.5-66.6c-0.1,0-0.2,0-0.2,0c-0.1,0-0.2,0-0.2,0c-45.5,0-73.3,29.7-73.4,66.4
			c-0.1,43.4,37.7,66.8,73.4,66.8c0.1,0,0.2,0,0.2,0c0.1,0,0.2,0,0.2,0C478.1,245.6,484.4,218.6,484.4,179z"/>
		<g>
			<path class="st9" d="M406.1,132.6c-1.5-9.4-6.2-16.4-10.9-15.3c-5.2,1.2-7.6,9.3-7.6,21.9c0,6.3,1.1,12,2.8,16.1"/>
		</g>
		<g>
			<path class="st9" d="M402.8,137.2c-0.7-4.6-2.7-8-4.7-7.5c-2.2,0.6-3.3,4.6-3.3,10.7c0,3.1,0.5,5.9,1.2,7.9"/>
		</g>
		<path class="st11" d="M475.6,203.5c0,2.8-0.3,7.4-0.3,7.4s-0.3,4.7,5.2,4.7s4.8-4.6,4.8-4.6v-12.6L475.6,203.5z"/>
		<path class="st9" d="M486.8,185.9c0,0,10.2,19.2-19,22.3"/>
		<g>
			<path class="st12" d="M454.9,189.9c9.6,0,17.4-9.2,17.4-20.6h-34.7C437.5,180.7,445.3,189.9,454.9,189.9z"/>
			<path d="M468.8,152.1c-3.7-4.4-8.6-6.9-13.8-6.9c-10.8-0.1-17.7,10.4-17.8,23.1c-0.1,12.8,6.7,23.1,17.5,23.2c0,0,0.1,0,0.1,0
				c10.7,0,19.5-10.3,19.5-23C474.5,162.3,472.5,156.5,468.8,152.1z M454.9,148.3c0,0,0.1,0,0.1,0c4.5,0,8.7,2.2,11.9,6
				c2.8,3.4,4.5,7.9,4.8,12.6l-31.7-0.1C440.7,156.5,446.1,148.3,454.9,148.3z M466.7,182.6c-3.2,3.7-7.4,5.7-12,5.8
				c-8.8-0.1-14.2-8.1-14.8-18.4l16.7,0c0.6,2.3,2.3,3.9,4.4,4c2.1,0,3.9-1.6,4.4-3.9l6.1,0.1C471.3,174.8,469.6,179.2,466.7,182.6z
				"/>
			<path d="M489.1,192.2c0,0,8-0.4,8-4.4c0-6.6-1.1-21-11.9-21l0,0c-0.1,0-0.1,0-0.2,0c-0.1,0-0.1,0-0.2,0l0,0
				c-5.5,1.2-5.3,15.9-5.3,21.8C479.5,192.8,484.1,192.2,489.1,192.2z"/>
		</g>
		<g>
			<path class="st13" d="M363,314.5c0,0-0.8,7-4.4,6.6"/>
			<path d="M359,322.8c-0.2,0-0.3,0-0.5,0c-0.9-0.1-1.6-0.9-1.5-1.8c0.1-0.9,0.9-1.6,1.8-1.5c1.3,0.1,2.3-3.2,2.5-5.2
				c0.1-0.9,0.9-1.6,1.9-1.5c0.9,0.1,1.6,0.9,1.5,1.9C364.6,315.5,363.6,322.8,359,322.8z"/>
		</g>
	</g>
	<g>
		<g>
			<path class="st10" d="M702.2,233.5L702.2,233.5c4.8,0,9.2,2.8,11.3,7.3c8.7,18.5,29,66.1,10.8,75.9
				c-19.5,10.5-30.3-41.1-34.5-67.9C688.5,240.8,694.4,233.5,702.2,233.5z"/>
			<path class="st10" d="M642.5,233.5L642.5,233.5c-4.8,0-9.2,2.8-11.3,7.3c-8.7,18.5-29,66.1-10.8,75.9
				c19.5,10.5,30.3-41.1,34.5-67.9C656.2,240.8,650.3,233.5,642.5,233.5z"/>
		</g>
		<path class="st13" d="M637,229.5h35.2h0.3h35.2c0,0,3.5,16.4,7.2,38.2h-85.1C633.4,245.9,637,229.5,637,229.5z"/>
		<path class="st14" d="M710.1,264.8c4.5,26.8,9.3,65.5,6.4,85c0,0,5,3.8,5,10.9c0,7-8.5,6.8-15,6.8s-16.2,1.8-21.1-12.9
			c-5-14.7-5-28.8-5-28.8h-16.1c0,0,0,14.1-5,28.8c-5,14.7-14.7,12.9-21.1,12.9s-15,0.3-15-6.8c0-7,5-10.9,5-10.9
			c-2.9-19.5,1.9-58.2,6.4-85"/>
		<g>
			<g>
				<circle class="st10" cx="614.9" cy="139.2" r="22.7"/>
			</g>
			<g>
				<circle class="st10" cx="731.9" cy="139.2" r="22.7"/>
			</g>
		</g>
		<path class="st10" d="M592.3,179c2.1-36.7,31.5-66.6,80.8-66.6c0.1,0,0.2,0,0.3,0c0.1,0,0.2,0,0.3,0c49.3,0,78.7,29.9,80.8,66.6
			c2.2,39.5-20.9,66.6-80.8,66.6c-0.1,0-0.2,0-0.3,0c-0.1,0-0.2,0-0.3,0C613.2,245.6,590.1,218.5,592.3,179z"/>
		<path class="st10" d="M679,311.5c-0.4-2.5-2.7-6.5-8.5-5.9c-2.6,0.2-6.9,3.4-8.1,4.4c-5.1,4.1-20.4,15.3-33.2,16.1
			c-15.7,0.9-25.9-10.6-39.6-8.2c-14.9,2.7-26.2,24.2-6.9,39.2c19.3,15,64.9,16.9,87.4-11.3C680.8,332.6,680.1,318.2,679,311.5z"/>
	</g>
	<g>
		<path class="st10" d="M151.4,311.6c0.5-3.4,3.8-5.9,7.6-5.7c0,0,0.1,0,0.1,0c6.3,0.3,7.2,2.7,7.2,2.7s19.3,16.6,35,17.4
			c15.7,0.9,25.8-10.7,39.6-8.2c14.9,2.6,26.2,24.2,7,39.2c-19.3,15-64.8,17-87.5-11.1C149.8,332.7,150.4,318.3,151.4,311.6z"/>
		<g>
			<path class="st10" d="M124.7,233.5L124.7,233.5c-4.8,0-9.2,2.8-11.3,7.3c-8.7,18.5-29,66.1-10.8,75.9
				c19.5,10.5,30.3-41.1,34.5-67.9C138.4,240.8,132.5,233.5,124.7,233.5z"/>
			<path class="st10" d="M184.4,233.5L184.4,233.5c4.8,0,9.2,2.8,11.3,7.3c8.7,18.5,29,66.1,10.8,75.9
				c-19.5,10.5-30.3-41.1-34.5-67.9C170.7,240.8,176.6,233.5,184.4,233.5z"/>
		</g>
		<path class="st13" d="M189.9,229.5h-35.2h-0.3h-35.2c0,0-3.5,16.4-7.2,38.2h85.1C193.4,245.9,189.9,229.5,189.9,229.5z"/>
		<path class="st14" d="M116.8,264.8c-4.5,26.8-9.3,65.5-6.4,85c0,0-5,3.8-5,10.9c0,7,8.5,6.8,15,6.8s16.2,1.8,21.1-12.9
			c5-14.7,5-28.8,5-28.8h16.1c0,0,0,14.1,5,28.8c5,14.7,14.7,12.9,21.1,12.9s15,0.3,15-6.8c0-7-5-10.9-5-10.9
			c2.9-19.5-1.9-58.2-6.4-85"/>
		<g>
			<g>
				<circle class="st10" cx="213" cy="139.2" r="22.7"/>
				<circle class="st10" cx="214.8" cy="137.4" r="10.7"/>
			</g>
			<g>
				<circle class="st10" cx="96.1" cy="139.2" r="22.7"/>
				<circle class="st10" cx="94.3" cy="137.4" r="10.7"/>
			</g>
		</g>
		<path class="st10" d="M235.6,179c-2.1-36.7-31.5-66.6-80.8-66.6c-0.1,0-0.2,0-0.3,0c-0.1,0-0.2,0-0.3,0
			c-49.3,0-78.7,29.9-80.8,66.6c-2.2,39.5,20.9,66.6,80.8,66.6c0.1,0,0.2,0,0.3,0c0.1,0,0.2,0,0.3,0
			C214.7,245.6,237.8,218.5,235.6,179z"/>
		<g>
			<path class="st12" d="M142.8,204.7l11.8-5l11.4,5v6.3c0,0,0.8,4.3-5.5,4.3c-6.4,0-14.1,0-14.1,0s-3.5-0.1-3.5-4.8V204.7z"/>
			<path d="M155.9,198.5l0-6.4l13.6,0.1c0,0-1.1-24.9-14.8-25.4l0,0c-0.1,0-0.1,0-0.2,0c-0.1,0-0.1,0-0.2,0l0,0
				c-13.7,0.4-15.2,25.2-15.2,25.2l13.6,0.1l0,6.4c-2,1.6-13.6,9-11.5,9.1l0,4.1c0,2.8,2.3,5.1,5.1,5.1l15.9,0.1c0,0,0,0,0,0
				c2.8,0,5.1-2.3,5.1-5.1l0-4.1C169.3,207.7,157.8,200.1,155.9,198.5z M164.1,211.8c0,1.1-0.9,1.9-1.9,1.9l-15.9-0.1
				c-1.1,0-1.9-0.9-1.9-1.9l0-5.8c3.4-0.6,6.4-3.6,8.3-4.9l-0.1,9.7c0,0.9,0.7,1.6,1.6,1.6c0,0,0,0,0,0c0.9,0,1.6-0.7,1.6-1.6
				l0.1-9.7c2,1.3,4.9,4.4,8.3,5L164.1,211.8z"/>
		</g>
		<path d="M175,206.8c-0.2-0.8-1-1.2-1.8-1c-0.1,0-6.1,1.5-17.7-8.2c0,0,0,0,0,0c0,0-0.1-0.1-0.1-0.1c0,0-0.1-0.1-0.1-0.1
			c0,0-0.1,0-0.1,0c0,0-0.1,0-0.2-0.1c0,0-0.1,0-0.1,0c-0.1,0-0.1,0-0.2,0c0,0-0.1,0-0.1,0c-0.1,0-0.1,0-0.2,0c0,0-0.1,0-0.1,0
			c-0.1,0-0.1,0-0.2,0c0,0-0.1,0-0.1,0c-0.1,0-0.1,0-0.2,0.1c0,0-0.1,0-0.1,0.1c-0.1,0-0.1,0.1-0.2,0.1c0,0,0,0,0,0
			c-11.5,9.6-17.5,8.2-17.7,8.2c-0.8-0.2-1.6,0.2-1.8,1c-0.2,0.8,0.2,1.6,1,1.9c0.2,0.1,0.9,0.2,2,0.2c2.9,0,8.7-1.2,17.5-8.2
			c8.8,7,14.6,8.2,17.5,8.2c1.1,0,1.8-0.2,2-0.2C174.8,208.4,175.2,207.6,175,206.8z"/>
		<g>
			<g>
				<path class="st15" d="M121,189.4c11.6,0,21-9.4,21-21H100C100,179.9,109.4,189.4,121,189.4z"/>
				<circle cx="121" cy="168.3" r="5.1"/>
				<path class="st13" d="M121,147.3c-11.6,0-21,9.4-21,21H142C142,156.7,132.6,147.3,121,147.3z"/>
				<line class="st16" x1="99.3" y1="168.3" x2="142.7" y2="168.3"/>
				<circle class="st16" cx="121" cy="168.3" r="21.7"/>
			</g>
			<g>
				<path class="st15" d="M188,189.4c11.6,0,21-9.4,21-21H167C167,179.9,176.4,189.4,188,189.4z"/>
				<circle cx="188" cy="168.3" r="5.1"/>
				<path class="st13" d="M188,147.3c-11.6,0-21,9.4-21,21h42.1C209.1,156.7,199.7,147.3,188,147.3z"/>
				<line class="st16" x1="166.3" y1="168.3" x2="209.7" y2="168.3"/>
				<circle class="st16" cx="188" cy="168.3" r="21.7"/>
			</g>
		</g>
	</g>
</g>
<rect x="174.9" y="424.6" class="st1" width="108.2" height="40.4"/>
<text transform="matrix(1 0 0 1 174.9321 438.9493)" class="st2 st17 st18">标准色：</text>
</svg>
