<svg width="513" height="100" viewBox="0 0 513 100" fill="none" xmlns="http://www.w3.org/2000/svg">
<path d="M118.711 31.4206H123.288V55.4477C123.288 58.3486 122.429 61.0144 121 63.1059C119.569 61.0144 118.711 58.3486 118.711 55.4477V31.4206ZM141.278 23H135.149V34.0703H128.835V31.4206H128.846V25.0139H113.179V30.4485H113.164V34.0703H109.736V23H103.607V34.0703H96.0763V40.477H102.198V53.6101C102.198 58.6387 99.6443 62.9686 96 64.8659V71.5882C98.9835 70.6188 101.614 68.621 103.607 65.9398V76.8386H109.736V40.477H113.164V55.4477C113.164 59.7636 114.398 63.7411 116.464 66.9139C115.402 67.3601 114.262 67.6053 113.073 67.6053H112.808V74.207H113.073C115.962 74.207 118.669 73.2731 121 71.6525C123.33 73.2731 126.037 74.207 128.925 74.207H129.191V67.6053H128.925C127.737 67.6053 126.596 67.3601 125.535 66.9139C127.601 63.7411 128.835 59.7636 128.835 55.4477V40.477H135.149V46.3431H130.497V52.7498H135.149V64.9698H135.167C135.013 67.5846 133.181 69.6581 130.945 69.6581V76.8942C136.535 76.8942 141.097 71.5768 141.255 64.9698H141.278V40.477H145.439V34.0703H141.278V23Z" fill="black"/>
<path d="M155.903 69.5347V52.6995H158.384V52.7062C158.496 52.7062 158.607 52.7009 158.718 52.6995H158.806V52.6982C163.162 52.6406 167.351 51.6933 171.018 49.9668C174.555 51.6316 178.654 52.6031 183.021 52.6948V52.6995H183.329C183.452 52.7015 183.574 52.7062 183.697 52.7062V52.6995H185.872V69.5347H155.903ZM166.851 39.4499H175.224C174.48 40.3436 173.584 41.1925 172.539 41.9763C172.062 42.334 171.564 42.671 171.048 42.9879C169.386 41.9823 167.959 40.7871 166.851 39.4499ZM155.903 36.4901V31.0822H160.356C160.325 34.0126 158.353 36.3949 155.903 36.4901ZM158.384 46.3484V46.3772H155.903V42.8472C157.8 42.8131 159.569 42.1445 161.069 41.0109C161.991 42.6911 163.187 44.2367 164.616 45.6141C162.633 46.0952 160.537 46.3484 158.384 46.3484ZM185.872 46.3772H183.697V46.3484C181.54 46.3484 179.436 46.0811 177.456 45.5947C180.801 42.389 182.754 38.4436 183.067 34.1962H177.686C177.685 34.2055 177.683 34.2149 177.681 34.2243H165.924V31.0822H185.872V46.3772ZM191.946 24.7117V24.6755H150.126V24.7117H149.774V77H155.903V75.9415H185.872V77H192V24.7117H191.946Z" fill="black"/>
<path d="M185.489 56.5799V56.8164L185.586 56.6677C185.554 56.6375 185.521 56.6094 185.489 56.5799Z" fill="black"/>
<path d="M160.386 53.3348V59.6826H177.494C178.815 59.6826 180.049 59.9238 181.223 60.4316L181.365 54.6165C180.653 53.9144 179.498 53.3348 177.494 53.3348H160.386Z" fill="black"/>
<path d="M160.386 61.5448V67.8926H177.494C178.815 67.8926 180.049 68.1338 181.223 68.6416L181.365 62.8264C180.653 62.1243 179.498 61.5448 177.494 61.5448H160.386Z" fill="black"/>
<path d="M185.489 65.0254L185.586 64.8767C185.554 64.8465 185.521 64.819 185.489 64.7889V65.0254Z" fill="black"/>
<path d="M222.056 77C219.022 77 216.32 76.6414 213.95 75.9243C211.58 75.2072 209.589 73.8924 207.977 71.9801C206.366 70.0677 205.133 67.3426 204.28 63.8048C203.427 60.2191 203 55.5817 203 49.8924C203 44.3944 203.427 39.9004 204.28 36.4104C205.181 32.9203 206.46 30.1952 208.12 28.2351C209.779 26.2749 211.793 24.9124 214.163 24.1474C216.534 23.3825 219.212 23 222.198 23C225.706 23 228.882 23.2869 231.726 23.8606C234.618 24.3865 236.917 24.9363 238.623 25.51V33.757C237.343 33.4701 235.4 33.2072 232.793 32.9681C230.233 32.6813 227.436 32.5378 224.402 32.5378C222.411 32.5378 220.705 32.7769 219.283 33.255C217.908 33.6853 216.794 34.5219 215.941 35.7649C215.135 36.9602 214.519 38.7052 214.092 41C213.713 43.2948 213.523 46.2829 213.523 49.9641C213.523 54.745 213.832 58.4024 214.448 60.9363C215.064 63.4223 216.154 65.1434 217.719 66.0996C219.283 67.008 221.511 67.4621 224.402 67.4621C227.958 67.4621 230.873 67.3904 233.148 67.247C235.424 67.1036 237.249 66.9362 238.623 66.745V74.9203C236.68 75.5896 234.333 76.1155 231.584 76.498C228.882 76.8327 225.706 77 222.056 77Z" fill="black"/>
<path d="M265.655 77C262.053 77 258.9 76.6653 256.198 75.996C253.496 75.2789 251.245 73.988 249.443 72.1235C247.642 70.2112 246.267 67.4861 245.319 63.9482C244.419 60.4104 243.968 55.7968 243.968 50.1076C243.968 44.4183 244.419 39.8048 245.319 36.2669C246.267 32.6813 247.642 29.9323 249.443 28.0199C251.292 26.1076 253.544 24.7928 256.198 24.0757C258.9 23.3586 262.053 23 265.655 23C269.258 23 272.41 23.3586 275.112 24.0757C277.814 24.7928 280.066 26.1076 281.867 28.0199C283.668 29.9323 285.019 32.6813 285.92 36.2669C286.821 39.8048 287.271 44.4183 287.271 50.1076C287.271 55.7968 286.821 60.4104 285.92 63.9482C285.019 67.4861 283.668 70.2112 281.867 72.1235C280.066 73.988 277.79 75.2789 275.041 75.996C272.339 76.6653 269.21 77 265.655 77ZM265.655 67.4621C267.741 67.4621 269.495 67.247 270.917 66.8167C272.386 66.3386 273.524 65.4781 274.33 64.2351C275.183 62.992 275.799 61.247 276.179 59C276.558 56.7052 276.747 53.741 276.747 50.1076C276.747 46.3307 276.558 43.2948 276.179 41C275.799 38.6574 275.183 36.8884 274.33 35.6932C273.477 34.4502 272.339 33.6135 270.917 33.1833C269.495 32.753 267.741 32.5378 265.655 32.5378C263.569 32.5378 261.816 32.753 260.393 33.1833C259.019 33.6135 257.881 34.4502 256.98 35.6932C256.127 36.8884 255.487 38.6574 255.061 41C254.681 43.2948 254.492 46.3307 254.492 50.1076C254.492 53.741 254.658 56.7052 254.99 59C255.369 61.247 255.985 62.992 256.838 64.2351C257.691 65.4781 258.829 66.3386 260.251 66.8167C261.673 67.247 263.475 67.4621 265.655 67.4621Z" fill="black"/>
<path d="M295.392 76.5697V23.502H303.854L325.896 58.498V23.502H336.42V76.5697H327.958L305.987 41.5737V76.5697H295.392Z" fill="black"/>
<path d="M345.102 76.5697V35.6215C345.102 32.4661 345.718 30.004 346.95 28.2351C348.183 26.4661 349.723 25.247 351.572 24.5777C353.421 23.8606 355.269 23.502 357.118 23.502C358.825 23.502 360.934 23.5259 363.446 23.5737C366.006 23.6215 368.708 23.7171 371.552 23.8606C374.444 23.9562 377.217 24.1474 379.872 24.4343V33.3267H360.033C358.564 33.3267 357.45 33.7331 356.692 34.5458C355.98 35.3108 355.625 36.3147 355.625 37.5578V46.6653L376.459 47.239V55.6295L355.625 56.2032V76.5697H345.102Z" fill="black"/>
<path d="M398.999 76.5697C394.875 76.5697 391.77 75.6135 389.684 73.7012C387.599 71.7888 386.556 68.5617 386.556 64.0199V23.502H397.079V62.2988C397.079 64.0677 397.506 65.2868 398.359 65.9562C399.26 66.6255 400.398 66.9602 401.772 66.9602H418.411V76.5697H398.999Z" fill="black"/>
<path d="M443.404 76.9283C440.465 76.9283 437.74 76.6892 435.227 76.2112C432.762 75.6853 430.582 74.8008 428.686 73.5578C426.837 72.2669 425.391 70.498 424.348 68.251C423.353 65.9562 422.855 63.0398 422.855 59.502V23.502H433.379V59.4303C433.379 62.3466 434.256 64.4024 436.01 65.5976C437.763 66.7928 440.228 67.3904 443.404 67.3904C446.533 67.3904 448.974 66.7928 450.728 65.5976C452.482 64.4024 453.359 62.3466 453.359 59.4303V23.502H463.954V59.502C463.954 63.0398 463.432 65.9562 462.389 68.251C461.346 70.498 459.901 72.2669 458.052 73.5578C456.203 74.8008 454.023 75.6853 451.51 76.2112C448.998 76.6892 446.296 76.9283 443.404 76.9283Z" fill="black"/>
<path d="M468.489 76.5697L484.629 49.9641L468.275 23.502H479.936L491.171 41.6454L501.41 23.502H513L496.646 50.5378L512.787 76.5697H501.126L490.176 58.8566L480.15 76.5697H468.489Z" fill="black"/>
<path d="M61.1283 59.5901L39.9798 80.928L28.2097 69.0525L49.3583 47.7146L39.9526 38.2247L9.2959 69.155L39.8682 100L70.5239 69.0698L61.1283 59.5901Z" fill="black"/>
<path d="M80 40.3025L40.0563 8.7738e-05L0 40.4152L0.127727 59.3056L39.8864 19.1919L79.9336 59.5988L80 40.3025Z" fill="black"/>
</svg>
