<svg width="464" height="386" viewBox="0 0 464 386" fill="none" xmlns="http://www.w3.org/2000/svg">
<path d="M96.056 309C93.0222 309 90.3202 308.641 87.9501 307.924C85.5799 307.207 83.589 305.892 81.9773 303.98C80.3656 302.068 79.1331 299.343 78.2799 295.805C77.4266 292.219 77 287.582 77 281.892C77 276.394 77.4266 271.9 78.2799 268.41C79.1805 264.92 80.4604 262.195 82.1195 260.235C83.7786 258.275 85.7932 256.912 88.1634 256.147C90.5335 255.382 93.2118 255 96.1982 255C99.706 255 102.882 255.287 105.726 255.861C108.618 256.386 110.917 256.936 112.623 257.51V265.757C111.343 265.47 109.4 265.207 106.793 264.968C104.233 264.681 101.436 264.538 98.4024 264.538C96.4115 264.538 94.705 264.777 93.2829 265.255C91.9082 265.685 90.7942 266.522 89.941 267.765C89.1351 268.96 88.5189 270.705 88.0923 273C87.7131 275.295 87.5234 278.283 87.5234 281.964C87.5234 286.745 87.8316 290.402 88.4478 292.936C89.064 295.422 90.1543 297.143 91.7186 298.1C93.2829 299.008 95.5108 299.462 98.4024 299.462C101.958 299.462 104.873 299.39 107.148 299.247C109.424 299.104 111.249 298.936 112.623 298.745V306.92C110.68 307.59 108.333 308.116 105.584 308.498C102.882 308.833 99.706 309 96.056 309Z" fill="black"/>
<path d="M139.655 309C136.053 309 132.9 308.665 130.198 307.996C127.496 307.279 125.245 305.988 123.443 304.124C121.642 302.211 120.267 299.486 119.319 295.948C118.419 292.41 117.968 287.797 117.968 282.108C117.968 276.418 118.419 271.805 119.319 268.267C120.267 264.681 121.642 261.932 123.443 260.02C125.292 258.108 127.544 256.793 130.198 256.076C132.9 255.359 136.053 255 139.655 255C143.258 255 146.41 255.359 149.112 256.076C151.814 256.793 154.066 258.108 155.867 260.02C157.668 261.932 159.019 264.681 159.92 268.267C160.821 271.805 161.271 276.418 161.271 282.108C161.271 287.797 160.821 292.41 159.92 295.948C159.019 299.486 157.668 302.211 155.867 304.124C154.066 305.988 151.79 307.279 149.041 307.996C146.339 308.665 143.21 309 139.655 309ZM139.655 299.462C141.741 299.462 143.495 299.247 144.917 298.817C146.386 298.339 147.524 297.478 148.33 296.235C149.183 294.992 149.799 293.247 150.179 291C150.558 288.705 150.747 285.741 150.747 282.108C150.747 278.331 150.558 275.295 150.179 273C149.799 270.657 149.183 268.888 148.33 267.693C147.477 266.45 146.339 265.614 144.917 265.183C143.495 264.753 141.741 264.538 139.655 264.538C137.569 264.538 135.816 264.753 134.393 265.183C133.019 265.614 131.881 266.45 130.98 267.693C130.127 268.888 129.487 270.657 129.061 273C128.681 275.295 128.492 278.331 128.492 282.108C128.492 285.741 128.658 288.705 128.99 291C129.369 293.247 129.985 294.992 130.838 296.235C131.691 297.478 132.829 298.339 134.251 298.817C135.673 299.247 137.475 299.462 139.655 299.462Z" fill="black"/>
<path d="M169.392 308.57V255.502H177.854L199.896 290.498V255.502H210.42V308.57H201.958L179.987 273.574V308.57H169.392Z" fill="black"/>
<path d="M219.102 308.57V267.622C219.102 264.466 219.718 262.004 220.95 260.235C222.183 258.466 223.723 257.247 225.572 256.578C227.421 255.861 229.269 255.502 231.118 255.502C232.825 255.502 234.934 255.526 237.446 255.574C240.006 255.622 242.708 255.717 245.552 255.861C248.444 255.956 251.217 256.147 253.872 256.434V265.327H234.033C232.564 265.327 231.45 265.733 230.692 266.546C229.98 267.311 229.625 268.315 229.625 269.558V278.665L250.459 279.239V287.629L229.625 288.203V308.57H219.102Z" fill="black"/>
<path d="M272.999 308.57C268.875 308.57 265.77 307.614 263.684 305.701C261.599 303.789 260.556 300.562 260.556 296.02V255.502H271.079V294.299C271.079 296.068 271.506 297.287 272.359 297.956C273.26 298.625 274.398 298.96 275.772 298.96H292.411V308.57H272.999Z" fill="black"/>
<path d="M317.404 308.928C314.465 308.928 311.74 308.689 309.227 308.211C306.762 307.685 304.582 306.801 302.686 305.558C300.837 304.267 299.391 302.498 298.348 300.251C297.353 297.956 296.855 295.04 296.855 291.502V255.502H307.379V291.43C307.379 294.347 308.256 296.402 310.01 297.598C311.763 298.793 314.228 299.39 317.404 299.39C320.533 299.39 322.974 298.793 324.728 297.598C326.482 296.402 327.359 294.347 327.359 291.43V255.502H337.954V291.502C337.954 295.04 337.432 297.956 336.389 300.251C335.346 302.498 333.901 304.267 332.052 305.558C330.203 306.801 328.023 307.685 325.51 308.211C322.998 308.689 320.296 308.928 317.404 308.928Z" fill="black"/>
<path d="M342.489 308.57L358.629 281.964L342.275 255.502H353.936L365.171 273.645L375.41 255.502H387L370.646 282.538L386.787 308.57H375.126L364.176 290.857L354.15 308.57H342.489Z" fill="black"/>
<path d="M261.871 162.81L231.47 193.536L214.551 176.436L244.952 145.709L231.431 132.044L187.362 176.583L231.31 221L275.378 176.46L261.871 162.81Z" fill="black"/>
<path d="M289 135.036L231.581 77.0001L174 135.198L174.184 162.4L231.337 104.636L288.905 162.822L289 135.036Z" fill="black"/>
</svg>
