<svg width="310" height="232" viewBox="0 0 310 232" fill="none" xmlns="http://www.w3.org/2000/svg">
<path d="M19.056 232C16.0222 232 13.3202 231.641 10.9501 230.924C8.57993 230.207 6.589 228.892 4.9773 226.98C3.36561 225.068 2.13313 222.343 1.27988 218.805C0.426626 215.219 0 210.582 0 204.892C0 199.394 0.426626 194.9 1.27988 191.41C2.18053 187.92 3.46041 185.195 5.11951 183.235C6.77862 181.275 8.79324 179.912 11.1634 179.147C13.5335 178.382 16.2118 178 19.1982 178C22.706 178 25.882 178.287 28.7262 178.861C31.6177 179.386 33.9168 179.936 35.6233 180.51V188.757C34.3434 188.47 32.3999 188.207 29.7927 187.968C27.233 187.681 24.4362 187.538 21.4024 187.538C19.4115 187.538 17.705 187.777 16.2829 188.255C14.9082 188.685 13.7942 189.522 12.941 190.765C12.1351 191.96 11.5189 193.705 11.0923 196C10.7131 198.295 10.5234 201.283 10.5234 204.964C10.5234 209.745 10.8316 213.402 11.4478 215.936C12.064 218.422 13.1543 220.143 14.7186 221.1C16.2829 222.008 18.5108 222.462 21.4024 222.462C24.9576 222.462 27.8729 222.39 30.1482 222.247C32.4236 222.104 34.2486 221.936 35.6233 221.745V229.92C33.6798 230.59 31.3333 231.116 28.584 231.498C25.882 231.833 22.706 232 19.056 232Z" fill="white"/>
<path d="M62.6552 232C59.0525 232 55.9002 231.665 53.1983 230.996C50.4963 230.279 48.2447 228.988 46.4434 227.124C44.6421 225.211 43.2674 222.486 42.3193 218.948C41.4187 215.41 40.9683 210.797 40.9683 205.108C40.9683 199.418 41.4187 194.805 42.3193 191.267C43.2674 187.681 44.6421 184.932 46.4434 183.02C48.2921 181.108 50.5437 179.793 53.1983 179.076C55.9002 178.359 59.0525 178 62.6552 178C66.2578 178 69.4101 178.359 72.112 179.076C74.814 179.793 77.0656 181.108 78.867 183.02C80.6683 184.932 82.0192 187.681 82.9199 191.267C83.8206 194.805 84.2709 199.418 84.2709 205.108C84.2709 210.797 83.8206 215.41 82.9199 218.948C82.0192 222.486 80.6683 225.211 78.867 227.124C77.0656 228.988 74.7903 230.279 72.0409 230.996C69.339 231.665 66.2104 232 62.6552 232ZM62.6552 222.462C64.7409 222.462 66.4948 222.247 67.9169 221.817C69.3864 221.339 70.524 220.478 71.3299 219.235C72.1831 217.992 72.7994 216.247 73.1786 214C73.5578 211.705 73.7474 208.741 73.7474 205.108C73.7474 201.331 73.5578 198.295 73.1786 196C72.7994 193.657 72.1831 191.888 71.3299 190.693C70.4766 189.45 69.339 188.614 67.9169 188.183C66.4948 187.753 64.7409 187.538 62.6552 187.538C60.5694 187.538 58.8155 187.753 57.3934 188.183C56.0188 188.614 54.8811 189.45 53.9804 190.693C53.1272 191.888 52.4872 193.657 52.0606 196C51.6814 198.295 51.4918 201.331 51.4918 205.108C51.4918 208.741 51.6577 211.705 51.9895 214C52.3687 216.247 52.985 217.992 53.8382 219.235C54.6915 220.478 55.8291 221.339 57.2512 221.817C58.6733 222.247 60.4746 222.462 62.6552 222.462Z" fill="white"/>
<path d="M92.3923 231.57V178.502H100.854L122.896 213.498V178.502H133.42V231.57H124.958L102.987 196.574V231.57H92.3923Z" fill="white"/>
<path d="M142.102 231.57V190.622C142.102 187.466 142.718 185.004 143.95 183.235C145.183 181.466 146.723 180.247 148.572 179.578C150.421 178.861 152.269 178.502 154.118 178.502C155.825 178.502 157.934 178.526 160.446 178.574C163.006 178.622 165.708 178.717 168.552 178.861C171.444 178.956 174.217 179.147 176.872 179.434V188.327H157.033C155.564 188.327 154.45 188.733 153.692 189.546C152.98 190.311 152.625 191.315 152.625 192.558V201.665L173.459 202.239V210.629L152.625 211.203V231.57H142.102Z" fill="white"/>
<path d="M195.999 231.57C191.875 231.57 188.77 230.614 186.684 228.701C184.599 226.789 183.556 223.562 183.556 219.02V178.502H194.079V217.299C194.079 219.068 194.506 220.287 195.359 220.956C196.26 221.625 197.398 221.96 198.772 221.96H215.411V231.57H195.999Z" fill="white"/>
<path d="M240.404 231.928C237.465 231.928 234.74 231.689 232.227 231.211C229.762 230.685 227.582 229.801 225.686 228.558C223.837 227.267 222.391 225.498 221.348 223.251C220.353 220.956 219.855 218.04 219.855 214.502V178.502H230.379V214.43C230.379 217.347 231.256 219.402 233.01 220.598C234.763 221.793 237.228 222.39 240.404 222.39C243.533 222.39 245.974 221.793 247.728 220.598C249.482 219.402 250.359 217.347 250.359 214.43V178.502H260.954V214.502C260.954 218.04 260.432 220.956 259.389 223.251C258.346 225.498 256.901 227.267 255.052 228.558C253.203 229.801 251.023 230.685 248.51 231.211C245.998 231.689 243.296 231.928 240.404 231.928Z" fill="white"/>
<path d="M265.489 231.57L281.629 204.964L265.275 178.502H276.936L288.171 196.645L298.41 178.502H310L293.646 205.538L309.787 231.57H298.126L287.176 213.857L277.15 231.57H265.489Z" fill="white"/>
<path d="M184.871 85.8097L154.47 116.536L137.551 99.4356L167.952 68.709L154.431 55.0436L110.362 99.5832L154.31 144L198.378 99.4605L184.871 85.8097Z" fill="white"/>
<path d="M212 58.0356L154.581 5.62593e-05L97 58.1978L97.1836 85.4L154.337 27.6362L211.905 85.8223L212 58.0356Z" fill="white"/>
</svg>
