<svg width="673" height="260" viewBox="0 0 673 260" fill="none" xmlns="http://www.w3.org/2000/svg">
<path d="M198.711 111.421H203.288V135.448C203.288 138.349 202.429 141.014 201 143.106C199.569 141.014 198.711 138.349 198.711 135.448V111.421ZM221.278 103H215.149V114.07H208.835V111.421H208.846V105.014H193.179V110.449H193.164V114.07H189.736V103H183.607V114.07H176.076V120.477H182.198V133.61C182.198 138.639 179.644 142.969 176 144.866V151.588C178.984 150.619 181.614 148.621 183.607 145.94V156.839H189.736V120.477H193.164V135.448C193.164 139.764 194.398 143.741 196.464 146.914C195.402 147.36 194.262 147.605 193.073 147.605H192.808V154.207H193.073C195.962 154.207 198.669 153.273 201 151.653C203.33 153.273 206.037 154.207 208.925 154.207H209.191V147.605H208.925C207.737 147.605 206.596 147.36 205.535 146.914C207.601 143.741 208.835 139.764 208.835 135.448V120.477H215.149V126.343H210.497V132.75H215.149V144.97H215.167C215.013 147.585 213.181 149.658 210.945 149.658V156.894C216.535 156.894 221.097 151.577 221.255 144.97H221.278V120.477H225.439V114.07H221.278V103Z" fill="black"/>
<path d="M235.903 149.535V132.7H238.384V132.706C238.496 132.706 238.607 132.701 238.718 132.7H238.806V132.698C243.162 132.641 247.351 131.693 251.018 129.967C254.555 131.632 258.654 132.603 263.021 132.695V132.7H263.329C263.452 132.702 263.574 132.706 263.697 132.706V132.7H265.872V149.535H235.903ZM246.851 119.45H255.224C254.48 120.344 253.584 121.192 252.539 121.976C252.062 122.334 251.564 122.671 251.048 122.988C249.386 121.982 247.959 120.787 246.851 119.45ZM235.903 116.49V111.082H240.356C240.325 114.013 238.353 116.395 235.903 116.49ZM238.384 126.348V126.377H235.903V122.847C237.8 122.813 239.569 122.144 241.069 121.011C241.991 122.691 243.187 124.237 244.616 125.614C242.633 126.095 240.537 126.348 238.384 126.348ZM265.872 126.377H263.697V126.348C261.54 126.348 259.436 126.081 257.456 125.595C260.801 122.389 262.754 118.444 263.067 114.196H257.686C257.685 114.206 257.683 114.215 257.681 114.224H245.924V111.082H265.872V126.377ZM271.946 104.712V104.675H230.126V104.712H229.774V157H235.903V155.941H265.872V157H272V104.712H271.946Z" fill="black"/>
<path d="M265.489 136.58V136.816L265.586 136.668C265.554 136.638 265.521 136.609 265.489 136.58Z" fill="black"/>
<path d="M240.386 133.335V139.683H257.494C258.815 139.683 260.049 139.924 261.223 140.432L261.365 134.616C260.653 133.914 259.498 133.335 257.494 133.335H240.386Z" fill="black"/>
<path d="M240.386 141.545V147.893H257.494C258.815 147.893 260.049 148.134 261.223 148.642L261.365 142.826C260.653 142.124 259.498 141.545 257.494 141.545H240.386Z" fill="black"/>
<path d="M265.489 145.025L265.586 144.877C265.554 144.847 265.521 144.819 265.489 144.789V145.025Z" fill="black"/>
<path d="M302.056 157C299.022 157 296.32 156.641 293.95 155.924C291.58 155.207 289.589 153.892 287.977 151.98C286.366 150.068 285.133 147.343 284.28 143.805C283.427 140.219 283 135.582 283 129.892C283 124.394 283.427 119.9 284.28 116.41C285.181 112.92 286.46 110.195 288.12 108.235C289.779 106.275 291.793 104.912 294.163 104.147C296.534 103.382 299.212 103 302.198 103C305.706 103 308.882 103.287 311.726 103.861C314.618 104.386 316.917 104.936 318.623 105.51V113.757C317.343 113.47 315.4 113.207 312.793 112.968C310.233 112.681 307.436 112.538 304.402 112.538C302.411 112.538 300.705 112.777 299.283 113.255C297.908 113.685 296.794 114.522 295.941 115.765C295.135 116.96 294.519 118.705 294.092 121C293.713 123.295 293.523 126.283 293.523 129.964C293.523 134.745 293.832 138.402 294.448 140.936C295.064 143.422 296.154 145.143 297.719 146.1C299.283 147.008 301.511 147.462 304.402 147.462C307.958 147.462 310.873 147.39 313.148 147.247C315.424 147.104 317.249 146.936 318.623 146.745V154.92C316.68 155.59 314.333 156.116 311.584 156.498C308.882 156.833 305.706 157 302.056 157Z" fill="black"/>
<path d="M345.655 157C342.053 157 338.9 156.665 336.198 155.996C333.496 155.279 331.245 153.988 329.443 152.124C327.642 150.211 326.267 147.486 325.319 143.948C324.419 140.41 323.968 135.797 323.968 130.108C323.968 124.418 324.419 119.805 325.319 116.267C326.267 112.681 327.642 109.932 329.443 108.02C331.292 106.108 333.544 104.793 336.198 104.076C338.9 103.359 342.053 103 345.655 103C349.258 103 352.41 103.359 355.112 104.076C357.814 104.793 360.066 106.108 361.867 108.02C363.668 109.932 365.019 112.681 365.92 116.267C366.821 119.805 367.271 124.418 367.271 130.108C367.271 135.797 366.821 140.41 365.92 143.948C365.019 147.486 363.668 150.211 361.867 152.124C360.066 153.988 357.79 155.279 355.041 155.996C352.339 156.665 349.21 157 345.655 157ZM345.655 147.462C347.741 147.462 349.495 147.247 350.917 146.817C352.386 146.339 353.524 145.478 354.33 144.235C355.183 142.992 355.799 141.247 356.179 139C356.558 136.705 356.747 133.741 356.747 130.108C356.747 126.331 356.558 123.295 356.179 121C355.799 118.657 355.183 116.888 354.33 115.693C353.477 114.45 352.339 113.614 350.917 113.183C349.495 112.753 347.741 112.538 345.655 112.538C343.569 112.538 341.816 112.753 340.393 113.183C339.019 113.614 337.881 114.45 336.98 115.693C336.127 116.888 335.487 118.657 335.061 121C334.681 123.295 334.492 126.331 334.492 130.108C334.492 133.741 334.658 136.705 334.99 139C335.369 141.247 335.985 142.992 336.838 144.235C337.691 145.478 338.829 146.339 340.251 146.817C341.673 147.247 343.475 147.462 345.655 147.462Z" fill="black"/>
<path d="M375.392 156.57V103.502H383.854L405.896 138.498V103.502H416.42V156.57H407.958L385.987 121.574V156.57H375.392Z" fill="black"/>
<path d="M425.102 156.57V115.622C425.102 112.466 425.718 110.004 426.95 108.235C428.183 106.466 429.723 105.247 431.572 104.578C433.421 103.861 435.269 103.502 437.118 103.502C438.825 103.502 440.934 103.526 443.446 103.574C446.006 103.622 448.708 103.717 451.552 103.861C454.444 103.956 457.217 104.147 459.872 104.434V113.327H440.033C438.564 113.327 437.45 113.733 436.692 114.546C435.98 115.311 435.625 116.315 435.625 117.558V126.665L456.459 127.239V135.629L435.625 136.203V156.57H425.102Z" fill="black"/>
<path d="M478.999 156.57C474.875 156.57 471.77 155.614 469.684 153.701C467.599 151.789 466.556 148.562 466.556 144.02V103.502H477.079V142.299C477.079 144.068 477.506 145.287 478.359 145.956C479.26 146.625 480.398 146.96 481.772 146.96H498.411V156.57H478.999Z" fill="black"/>
<path d="M523.404 156.928C520.465 156.928 517.74 156.689 515.227 156.211C512.762 155.685 510.582 154.801 508.686 153.558C506.837 152.267 505.391 150.498 504.348 148.251C503.353 145.956 502.855 143.04 502.855 139.502V103.502H513.379V139.43C513.379 142.347 514.256 144.402 516.01 145.598C517.763 146.793 520.228 147.39 523.404 147.39C526.533 147.39 528.974 146.793 530.728 145.598C532.482 144.402 533.359 142.347 533.359 139.43V103.502H543.954V139.502C543.954 143.04 543.432 145.956 542.389 148.251C541.346 150.498 539.901 152.267 538.052 153.558C536.203 154.801 534.023 155.685 531.51 156.211C528.998 156.689 526.296 156.928 523.404 156.928Z" fill="black"/>
<path d="M548.489 156.57L564.629 129.964L548.275 103.502H559.936L571.171 121.645L581.41 103.502H593L576.646 130.538L592.787 156.57H581.126L570.176 138.857L560.15 156.57H548.489Z" fill="black"/>
<path d="M141.128 139.59L119.98 160.928L108.21 149.053L129.358 127.715L119.953 118.225L89.2959 149.155L119.868 180L150.524 149.07L141.128 139.59Z" fill="black"/>
<path d="M160 120.303L120.056 80.0001L80 120.415L80.1277 139.306L119.886 99.1919L159.934 139.599L160 120.303Z" fill="black"/>
</svg>
