<svg width="407" height="100" viewBox="0 0 407 100" fill="none" xmlns="http://www.w3.org/2000/svg">
<path d="M116.056 77C113.022 77 110.32 76.6414 107.95 75.9243C105.58 75.2072 103.589 73.8924 101.977 71.9801C100.366 70.0677 99.1331 67.3426 98.2799 63.8048C97.4266 60.2191 97 55.5817 97 49.8924C97 44.3944 97.4266 39.9004 98.2799 36.4104C99.1805 32.9203 100.46 30.1952 102.12 28.2351C103.779 26.2749 105.793 24.9124 108.163 24.1474C110.534 23.3825 113.212 23 116.198 23C119.706 23 122.882 23.2869 125.726 23.8606C128.618 24.3865 130.917 24.9363 132.623 25.51V33.757C131.343 33.4701 129.4 33.2072 126.793 32.9681C124.233 32.6813 121.436 32.5378 118.402 32.5378C116.411 32.5378 114.705 32.7769 113.283 33.255C111.908 33.6853 110.794 34.5219 109.941 35.7649C109.135 36.9602 108.519 38.7052 108.092 41C107.713 43.2948 107.523 46.2829 107.523 49.9641C107.523 54.745 107.832 58.4024 108.448 60.9363C109.064 63.4223 110.154 65.1434 111.719 66.0996C113.283 67.008 115.511 67.4621 118.402 67.4621C121.958 67.4621 124.873 67.3904 127.148 67.247C129.424 67.1036 131.249 66.9362 132.623 66.745V74.9203C130.68 75.5896 128.333 76.1155 125.584 76.498C122.882 76.8327 119.706 77 116.056 77Z" fill="black"/>
<path d="M159.655 77C156.053 77 152.9 76.6653 150.198 75.996C147.496 75.2789 145.245 73.988 143.443 72.1235C141.642 70.2112 140.267 67.4861 139.319 63.9482C138.419 60.4104 137.968 55.7968 137.968 50.1076C137.968 44.4183 138.419 39.8048 139.319 36.2669C140.267 32.6813 141.642 29.9323 143.443 28.0199C145.292 26.1076 147.544 24.7928 150.198 24.0757C152.9 23.3586 156.053 23 159.655 23C163.258 23 166.41 23.3586 169.112 24.0757C171.814 24.7928 174.066 26.1076 175.867 28.0199C177.668 29.9323 179.019 32.6813 179.92 36.2669C180.821 39.8048 181.271 44.4183 181.271 50.1076C181.271 55.7968 180.821 60.4104 179.92 63.9482C179.019 67.4861 177.668 70.2112 175.867 72.1235C174.066 73.988 171.79 75.2789 169.041 75.996C166.339 76.6653 163.21 77 159.655 77ZM159.655 67.4621C161.741 67.4621 163.495 67.247 164.917 66.8167C166.386 66.3386 167.524 65.4781 168.33 64.2351C169.183 62.992 169.799 61.247 170.179 59C170.558 56.7052 170.747 53.741 170.747 50.1076C170.747 46.3307 170.558 43.2948 170.179 41C169.799 38.6574 169.183 36.8884 168.33 35.6932C167.477 34.4502 166.339 33.6135 164.917 33.1833C163.495 32.753 161.741 32.5378 159.655 32.5378C157.569 32.5378 155.816 32.753 154.393 33.1833C153.019 33.6135 151.881 34.4502 150.98 35.6932C150.127 36.8884 149.487 38.6574 149.061 41C148.681 43.2948 148.492 46.3307 148.492 50.1076C148.492 53.741 148.658 56.7052 148.99 59C149.369 61.247 149.985 62.992 150.838 64.2351C151.691 65.4781 152.829 66.3386 154.251 66.8167C155.673 67.247 157.475 67.4621 159.655 67.4621Z" fill="black"/>
<path d="M189.392 76.5697V23.502H197.854L219.896 58.498V23.502H230.42V76.5697H221.958L199.987 41.5737V76.5697H189.392Z" fill="black"/>
<path d="M239.102 76.5697V35.6215C239.102 32.4661 239.718 30.004 240.95 28.2351C242.183 26.4661 243.723 25.247 245.572 24.5777C247.421 23.8606 249.269 23.502 251.118 23.502C252.825 23.502 254.934 23.5259 257.446 23.5737C260.006 23.6215 262.708 23.7171 265.552 23.8606C268.444 23.9562 271.217 24.1474 273.872 24.4343V33.3267H254.033C252.564 33.3267 251.45 33.7331 250.692 34.5458C249.98 35.3108 249.625 36.3147 249.625 37.5578V46.6653L270.459 47.239V55.6295L249.625 56.2032V76.5697H239.102Z" fill="black"/>
<path d="M292.999 76.5697C288.875 76.5697 285.77 75.6135 283.684 73.7012C281.599 71.7888 280.556 68.5617 280.556 64.0199V23.502H291.079V62.2988C291.079 64.0677 291.506 65.2868 292.359 65.9562C293.26 66.6255 294.398 66.9602 295.772 66.9602H312.411V76.5697H292.999Z" fill="black"/>
<path d="M337.404 76.9283C334.465 76.9283 331.74 76.6892 329.227 76.2112C326.762 75.6853 324.582 74.8008 322.686 73.5578C320.837 72.2669 319.391 70.498 318.348 68.251C317.353 65.9562 316.855 63.0398 316.855 59.502V23.502H327.379V59.4303C327.379 62.3466 328.256 64.4024 330.01 65.5976C331.763 66.7928 334.228 67.3904 337.404 67.3904C340.533 67.3904 342.974 66.7928 344.728 65.5976C346.482 64.4024 347.359 62.3466 347.359 59.4303V23.502H357.954V59.502C357.954 63.0398 357.432 65.9562 356.389 68.251C355.346 70.498 353.901 72.2669 352.052 73.5578C350.203 74.8008 348.023 75.6853 345.51 76.2112C342.998 76.6892 340.296 76.9283 337.404 76.9283Z" fill="black"/>
<path d="M362.489 76.5697L378.629 49.9641L362.275 23.502H373.936L385.171 41.6454L395.41 23.502H407L390.646 50.5378L406.787 76.5697H395.126L384.176 58.8566L374.15 76.5697H362.489Z" fill="black"/>
<path d="M61.1283 59.59L39.9798 80.9279L28.2097 69.0524L49.3583 47.7145L39.9526 38.2246L9.2959 69.1549L39.8682 100L70.5239 69.0697L61.1283 59.59Z" fill="black"/>
<path d="M80 40.3026L40.0563 0.000118256L0 40.4152L0.127727 59.3056L39.8864 19.1919L79.9336 59.5989L80 40.3026Z" fill="black"/>
</svg>
